Pontano-Regular.ufo
<glyph name="dollar" format="1">
  <advance width="1216"/>
  <unicode hex="0024"/>
  <outline>
    <component base="S"/>
    <contour>
      <point x="593" y="-204" type="line"/>
      <point x="699" y="-204" type="line"/>
      <point x="699" y="1672" type="line"/>
      <point x="593" y="1672" type="line"/>
    </contour>
  </outline>
</glyph>
<glyph name="C" format="1">
  <advance width="1394"/>
  <unicode hex="0043"/>
  <outline>
    <contour>
      <point x="755" y="-24" type="curve" smooth="yes"/>
      <point x="1013" y="-24"/>
      <point x="1220" y="93"/>
      <point x="1300" y="361" type="curve"/>
      <point x="1138" y="398" type="line"/>
      <point x="1088" y="233"/>
      <point x="976" y="116"/>
      <point x="748" y="116" type="curve" smooth="yes"/>
      <point x="416" y="116"/>
      <point x="301" y="338"/>
      <point x="301" y="735" type="curve" smooth="yes"/>
      <point x="301" y="1132"/>
      <point x="416" y="1350"/>
      <point x="748" y="1350" type="curve" smooth="yes"/>
      <point x="976" y="1350"/>
      <point x="1088" y="1233"/>
      <point x="1138" y="1067" type="curve"/>
      <point x="1300" y="1105" type="line"/>
      <point x="1220" y="1373"/>
      <point x="1013" y="1490"/>
      <point x="755" y="1490" type="curve" smooth="yes"/>
      <point x="356" y="1490"/>
      <point x="116" y="1266"/>
      <point x="116" y="735" type="curve" smooth="yes"/>
      <point x="116" y="204"/>
      <point x="356" y="-24"/>
    </contour>
  </outline>
</glyph>
<glyph name="E" format="1">
  <advance width="1216"/>
  <unicode hex="0045"/>
  <outline>
    <contour>
      <point x="749" y="1" type="move" name="ogonek"/>
    </contour>
    <contour>
      <point x="146" y="0" type="line"/>
      <point x="1143" y="0" type="line"/>
      <point x="1143" y="133" type="line"/>
      <point x="321" y="133" type="line"/>
      <point x="321" y="711" type="line"/>
      <point x="1027" y="711" type="line"/>
      <point x="1027" y="848" type="line"/>
      <point x="321" y="848" type="line"/>
      <point x="321" y="1331" type="line"/>
      <point x="1132" y="1331" type="line"/>
      <point x="1132" y="1464" type="line"/>
      <point x="146" y="1464" type="line"/>
    </contour>
  </outline>
</glyph>
<glyph name="F" format="1">
  <advance width="1192"/>
  <unicode hex="0046"/>
  <outline>
    <contour>
      <point x="146" y="0" type="line"/>
      <point x="321" y="0" type="line"/>
      <point x="321" y="702" type="line"/>
      <point x="1028" y="702" type="line"/>
      <point x="1028" y="838" type="line"/>
      <point x="321" y="838" type="line"/>
      <point x="321" y="1331" type="line"/>
      <point x="1137" y="1331" type="line"/>
      <point x="1137" y="1464" type="line"/>
      <point x="146" y="1464" type="line"/>
    </contour>
  </outline>
</glyph>
<glyph name="L" format="1">
  <advance width="1045"/>
  <unicode hex="004C"/>
  <outline>
    <contour>
      <point x="472" y="1023" type="move" name="caron.alt"/>
    </contour>
    <contour>
      <point x="146" y="0" type="line"/>
      <point x="1060" y="0" type="line"/>
      <point x="1060" y="133" type="line"/>
      <point x="321" y="133" type="line"/>
      <point x="321" y="1464" type="line"/>
      <point x="146" y="1464" type="line"/>
    </contour>
  </outline>
</glyph>
<glyph name="R" format="1">
  <advance width="1316"/>
  <unicode hex="0052"/>
  <outline>
    <contour>
      <point x="146" y="0" type="line"/>
      <point x="321" y="0" type="line"/>
      <point x="321" y="670" type="line"/>
      <point x="741" y="670" type="line"/>
      <point x="1073" y="0" type="line"/>
      <point x="1262" y="0" type="line"/>
      <point x="918" y="694" type="line"/>
      <point x="1122" y="733"/>
      <point x="1233" y="872"/>
      <point x="1233" y="1079" type="curve" smooth="yes"/>
      <point x="1233" y="1342"/>
      <point x="1081" y="1464"/>
      <point x="694" y="1464" type="curve" smooth="yes"/>
      <point x="146" y="1464" type="line"/>
    </contour>
    <contour>
      <point x="321" y="803" type="line"/>
      <point x="321" y="1330" type="line"/>
      <point x="685" y="1330" type="line" smooth="yes"/>
      <point x="886" y="1330"/>
      <point x="1054" y="1306"/>
      <point x="1054" y="1077" type="curve" smooth="yes"/>
      <point x="1054" y="845"/>
      <point x="892" y="803"/>
      <point x="678" y="803" type="curve" smooth="yes"/>
    </contour>
  </outline>
</glyph>
<glyph name="W" format="1">
  <advance width="1835"/>
  <unicode hex="0057"/>
  <outline>
    <contour>
      <point x="429" y="0" type="line"/>
      <point x="563" y="0" type="line"/>
      <point x="924" y="1129" type="line"/>
      <point x="1246" y="0" type="line"/>
      <point x="1398" y="0" type="line"/>
      <point x="1823" y="1464" type="line"/>
      <point x="1656" y="1464" type="line"/>
      <point x="1333" y="260" type="line"/>
      <point x="998" y="1464" type="line"/>
      <point x="874" y="1464" type="line"/>
      <point x="503" y="281" type="line"/>
      <point x="195" y="1464" type="line"/>
      <point x="12" y="1464" type="line"/>
    </contour>
  </outline>
</glyph>
<glyph name="b" format="1">
  <advance width="1113"/>
  <unicode hex="0062"/>
  <outline>
    <contour>
      <point x="594" y="-24" type="curve" smooth="yes"/>
      <point x="865" y="-24"/>
      <point x="1017" y="182"/>
      <point x="1017" y="510" type="curve" smooth="yes"/>
      <point x="1017" y="857"/>
      <point x="850" y="1045"/>
      <point x="598" y="1045" type="curve" smooth="yes"/>
      <point x="464" y="1045"/>
      <point x="362" y="983"/>
      <point x="296" y="882" type="curve"/>
      <point x="296" y="1473" type="line"/>
      <point x="126" y="1473" type="line"/>
      <point x="126" y="-1" type="line"/>
      <point x="258" y="-1" type="line"/>
      <point x="266" y="166" type="line"/>
      <point x="325" y="49"/>
      <point x="432" y="-24"/>
    </contour>
    <contour>
      <point x="585" y="97" type="curve" smooth="yes"/>
      <point x="360" y="97"/>
      <point x="291" y="233"/>
      <point x="291" y="521" type="curve" smooth="yes"/>
      <point x="291" y="820"/>
      <point x="423" y="925"/>
      <point x="586" y="925" type="curve" smooth="yes"/>
      <point x="756" y="925"/>
      <point x="844" y="780"/>
      <point x="844" y="516" type="curve" smooth="yes"/>
      <point x="844" y="239"/>
      <point x="759" y="97"/>
    </contour>
  </outline>
</glyph>
<glyph name="e" format="1">
  <advance width="1027"/>
  <unicode hex="0065"/>
  <outline>
    <contour>
      <point x="640" y="0" type="move" name="ogonek"/>
    </contour>
    <contour>
      <point x="551" y="-24" type="curve" smooth="yes"/>
      <point x="727" y="-23"/>
      <point x="884" y="78"/>
      <point x="931" y="256" type="curve"/>
      <point x="804" y="285" type="line"/>
      <point x="769" y="181"/>
      <point x="687" y="98"/>
      <point x="548" y="98" type="curve" smooth="yes"/>
      <point x="347" y="98"/>
      <point x="267" y="283"/>
      <point x="266" y="487" type="curve"/>
      <point x="950" y="487" type="line"/>
      <point x="952" y="504"/>
      <point x="953" y="555"/>
      <point x="953" y="564" type="curve" smooth="yes"/>
      <point x="953" y="837"/>
      <point x="827" y="1045"/>
      <point x="542" y="1045" type="curve" smooth="yes"/>
      <point x="257" y="1045"/>
      <point x="96" y="832"/>
      <point x="96" y="512" type="curve" smooth="yes"/>
      <point x="96" y="224"/>
      <point x="232" y="-24"/>
    </contour>
    <contour>
      <point x="266" y="599" type="line"/>
      <point x="277" y="758"/>
      <point x="355" y="924"/>
      <point x="539" y="924" type="curve" smooth="yes"/>
      <point x="722" y="924"/>
      <point x="792" y="804"/>
      <point x="794" y="599" type="curve"/>
    </contour>
  </outline>
</glyph>
<glyph name="h" format="1">
  <advance width="1106"/>
  <unicode hex="0068"/>
  <outline>
    <contour>
      <point x="126" y="0" type="line"/>
      <point x="297" y="0" type="line"/>
      <point x="297" y="538" type="line"/>
      <point x="305" y="750"/>
      <point x="379" y="924"/>
      <point x="607" y="924" type="curve" smooth="yes"/>
      <point x="772" y="924"/>
      <point x="818" y="808"/>
      <point x="818" y="603" type="curve" smooth="yes"/>
      <point x="818" y="0" type="line"/>
      <point x="988" y="0" type="line"/>
      <point x="988" y="588" type="line" smooth="yes"/>
      <point x="988" y="794"/>
      <point x="960" y="1044"/>
      <point x="637" y="1044" type="curve" smooth="yes"/>
      <point x="478" y="1044"/>
      <point x="366" y="981"/>
      <point x="297" y="866" type="curve"/>
      <point x="297" y="1474" type="line"/>
      <point x="126" y="1474" type="line"/>
    </contour>
  </outline>
</glyph>
<glyph name="i" format="1">
  <advance width="442"/>
  <unicode hex="0069"/>
  <outline>
    <contour>
      <point x="142" y="0" type="line"/>
      <point x="312" y="0" type="line"/>
      <point x="312" y="1023" type="line"/>
      <point x="142" y="1023" type="line"/>
    </contour>
    <contour>
      <point x="140" y="1232" type="line"/>
      <point x="314" y="1232" type="line"/>
      <point x="314" y="1457" type="line"/>
      <point x="140" y="1457" type="line"/>
    </contour>
  </outline>
</glyph>
<glyph name="l" format="1">
  <advance width="445"/>
  <unicode hex="006C"/>
  <outline>
    <contour>
      <point x="303" y="1023" type="move" name="caron.alt"/>
    </contour>
    <contour>
      <point x="135" y="0" type="line"/>
      <point x="305" y="0" type="line"/>
      <point x="305" y="1474" type="line"/>
      <point x="135" y="1474" type="line"/>
    </contour>
  </outline>
</glyph>
<glyph name="q" format="1">
  <advance width="1116"/>
  <unicode hex="0071"/>
  <outline>
    <contour>
      <point x="821" y="-350" type="line"/>
      <point x="991" y="-350" type="line"/>
      <point x="991" y="1023" type="line"/>
      <point x="844" y="1023" type="line"/>
      <point x="829" y="863" type="line"/>
      <point x="766" y="975"/>
      <point x="661" y="1045"/>
      <point x="519" y="1045" type="curve" smooth="yes"/>
      <point x="265" y="1045"/>
      <point x="95" y="861"/>
      <point x="95" y="510" type="curve" smooth="yes"/>
      <point x="95" y="182"/>
      <point x="247" y="-24"/>
      <point x="518" y="-24" type="curve" smooth="yes"/>
      <point x="661" y="-24"/>
      <point x="760" y="32"/>
      <point x="821" y="124" type="curve"/>
    </contour>
    <contour>
      <point x="527" y="97" type="curve" smooth="yes"/>
      <point x="354" y="97"/>
      <point x="268" y="239"/>
      <point x="268" y="516" type="curve" smooth="yes"/>
      <point x="268" y="779"/>
      <point x="357" y="925"/>
      <point x="529" y="925" type="curve" smooth="yes"/>
      <point x="694" y="925"/>
      <point x="822" y="829"/>
      <point x="822" y="503" type="curve" smooth="yes"/>
      <point x="822" y="228"/>
      <point x="749" y="97"/>
    </contour>
  </outline>
</glyph>
<glyph name="s" format="1">
  <advance width="920"/>
  <unicode hex="0073"/>
  <outline>
    <contour>
      <point x="452" y="-24" type="curve" smooth="yes"/>
      <point x="734" y="-24"/>
      <point x="851" y="84"/>
      <point x="851" y="284" type="curve" smooth="yes"/>
      <point x="851" y="477"/>
      <point x="752" y="536"/>
      <point x="499" y="589" type="curve" smooth="yes"/>
      <point x="308.902" y="628.604"/>
      <point x="258.985" y="647.621"/>
      <point x="258.985" y="757.669" type="curve" smooth="yes"/>
      <point x="258.985" y="871.481"/>
      <point x="316.352" y="925"/>
      <point x="486" y="925" type="curve" smooth="yes"/>
      <point x="617" y="925"/>
      <point x="683" y="886"/>
      <point x="732" y="784" type="curve"/>
      <point x="732" y="785"/>
      <point x="839" y="844"/>
      <point x="839" y="844" type="curve"/>
      <point x="767" y="994"/>
      <point x="658" y="1045"/>
      <point x="479" y="1045" type="curve" smooth="yes"/>
      <point x="253" y="1045"/>
      <point x="100" y="945"/>
      <point x="100" y="761" type="curve" smooth="yes"/>
      <point x="100" y="559"/>
      <point x="200" y="514"/>
      <point x="408" y="467" type="curve" smooth="yes"/>
      <point x="662.785" y="409.723"/>
      <point x="703.019" y="406.083"/>
      <point x="703.019" y="267.318" type="curve" smooth="yes"/>
      <point x="703.019" y="265.567"/>
      <point x="703.012" y="263.794"/>
      <point x="703" y="262" type="curve" smooth="yes"/>
      <point x="703" y="135"/>
      <point x="604" y="97"/>
      <point x="466" y="97" type="curve" smooth="yes"/>
      <point x="303" y="97"/>
      <point x="242" y="147"/>
      <point x="193" y="277" type="curve"/>
      <point x="68" y="226" type="line"/>
      <point x="120" y="35"/>
      <point x="287" y="-24"/>
    </contour>
  </outline>
</glyph>
<glyph name="x" format="1">
  <advance width="1131"/>
  <unicode hex="0078"/>
  <outline>
    <contour>
      <point x="81" y="0" type="line"/>
      <point x="262" y="0" type="line"/>
      <point x="542" y="392" type="line"/>
      <point x="829" y="0" type="line"/>
      <point x="1016" y="0" type="line"/>
      <point x="639" y="514" type="line"/>
      <point x="1008" y="1023" type="line"/>
      <point x="826" y="1023" type="line"/>
      <point x="552" y="632" type="line"/>
      <point x="266" y="1023" type="line"/>
      <point x="79" y="1023" type="line"/>
      <point x="453" y="512" type="line"/>
    </contour>
  </outline>
</glyph>
<glyph name="y" format="1">
  <advance width="980"/>
  <unicode hex="0079"/>
  <outline>
    <contour>
      <point x="67" y="-304" type="line"/>
      <point x="108.611" y="-315.246"/>
      <point x="144.786" y="-319.139"/>
      <point x="184.907" y="-319.139" type="curve" smooth="yes"/>
      <point x="393.08" y="-319.139"/>
      <point x="474.998" y="-188.838"/>
      <point x="581" y="85" type="curve" smooth="yes"/>
      <point x="946" y="1023" type="line"/>
      <point x="778" y="1023" type="line"/>
      <point x="495" y="268" type="line"/>
      <point x="211" y="1023" type="line"/>
      <point x="36" y="1023" type="line"/>
      <point x="409" y="92" type="line"/>
      <point x="391" y="40" type="line"/>
      <point x="335" y="-132"/>
      <point x="278" y="-173"/>
      <point x="163" y="-173" type="curve" smooth="yes"/>
      <point x="140" y="-173"/>
      <point x="115" y="-170"/>
      <point x="86" y="-166" type="curve"/>
    </contour>
  </outline>
</glyph>
<glyph name="cent" format="1">
  <advance width="982"/>
  <unicode hex="00A2"/>
  <outline>
    <component base="c"/>
    <contour>
      <point x="485" y="-208" type="line"/>
      <point x="596" y="-208" type="line"/>
      <point x="596" y="1253" type="line"/>
      <point x="485" y="1253" type="line"/>
    </contour>
  </outline>
</glyph>
<glyph name="sterling" format="1">
  <advance width="1168"/>
  <unicode hex="00A3"/>
  <outline>
    <contour>
      <point x="419.058" y="485.461" type="curve" smooth="yes"/>
      <point x="419.058" y="546.505"/>
      <point x="409.438" y="609.739"/>
      <point x="403" y="687" type="curve"/>
      <point x="773" y="687" type="line"/>
      <point x="773" y="810" type="line"/>
      <point x="395" y="810" type="line"/>
      <point x="390" y="867"/>
      <point x="377" y="955"/>
      <point x="377" y="1007" type="curve" smooth="yes"/>
      <point x="377" y="1243"/>
      <point x="462" y="1350"/>
      <point x="651" y="1350" type="curve" smooth="yes"/>
      <point x="733" y="1350"/>
      <point x="825" y="1329"/>
      <point x="861" y="1131" type="curve"/>
      <point x="1003" y="1152" type="line"/>
      <point x="971" y="1368"/>
      <point x="877" y="1490"/>
      <point x="645" y="1490" type="curve" smooth="yes"/>
      <point x="359" y="1490"/>
      <point x="209" y="1321"/>
      <point x="209" y="988" type="curve" smooth="yes"/>
      <point x="209" y="942"/>
      <point x="222" y="860"/>
      <point x="226" y="810" type="curve"/>
      <point x="60" y="810" type="line"/>
      <point x="60" y="687" type="line"/>
      <point x="236" y="687" type="line"/>
      <point x="245" y="635"/>
      <point x="260" y="564"/>
      <point x="260" y="515" type="curve" smooth="yes"/>
      <point x="260" y="324"/>
      <point x="201" y="176"/>
      <point x="145" y="73" type="curve"/>
      <point x="219" y="-26" type="line"/>
      <point x="424" y="24"/>
      <point x="562" y="42"/>
      <point x="683" y="42" type="curve" smooth="yes"/>
      <point x="813" y="42"/>
      <point x="879" y="21"/>
      <point x="979" y="0" type="curve"/>
      <point x="1012" y="140" type="line"/>
      <point x="936" y="163"/>
      <point x="833" y="193"/>
      <point x="741" y="193" type="curve" smooth="yes"/>
      <point x="617" y="193"/>
      <point x="510" y="181"/>
      <point x="327" y="114" type="curve"/>
      <point x="370.145" y="197.347"/>
      <point x="419.058" y="309.54"/>
    </contour>
  </outline>
</glyph>
<glyph name="ordfeminine" format="1">
  <advance width="946"/>
  <unicode hex="00AA"/>
  <outline>
    <contour>
      <point x="399.899" y="582.961" type="curve" smooth="yes"/>
      <point x="522.714" y="582.961"/>
      <point x="600.465" y="635.474"/>
      <point x="662" y="696" type="curve"/>
      <point x="678" y="603" type="line"/>
      <point x="806" y="603" type="line"/>
      <point x="806" y="1144" type="line" smooth="yes"/>
      <point x="806" y="1362"/>
      <point x="691" y="1474"/>
      <point x="495" y="1474" type="curve" smooth="yes"/>
      <point x="398" y="1474"/>
      <point x="260" y="1422"/>
      <point x="185" y="1340" type="curve"/>
      <point x="185" y="1340"/>
      <point x="278" y="1256"/>
      <point x="278" y="1255" type="curve"/>
      <point x="335" y="1311"/>
      <point x="415" y="1354"/>
      <point x="497" y="1354" type="curve" smooth="yes"/>
      <point x="591" y="1354"/>
      <point x="658" y="1299"/>
      <point x="658" y="1170" type="curve" smooth="yes"/>
      <point x="658" y="1110" type="line"/>
      <point x="565" y="1101" type="line"/>
      <point x="330" y="1076"/>
      <point x="152" y="1018"/>
      <point x="152" y="804" type="curve" smooth="yes"/>
      <point x="152" y="657.923"/>
      <point x="270.851" y="582.961"/>
    </contour>
    <contour>
      <point x="421.545" y="677.059" type="curve" smooth="yes"/>
      <point x="327.681" y="677.059"/>
      <point x="287.072" y="736.038"/>
      <point x="287.072" y="809.936" type="curve" smooth="yes"/>
      <point x="287.072" y="926.355"/>
      <point x="353.608" y="973.195"/>
      <point x="563" y="996" type="curve" smooth="yes"/>
      <point x="658" y="1006" type="line"/>
      <point x="658" y="788" type="line"/>
      <point x="600.37" y="730.37"/>
      <point x="500.403" y="677.059"/>
    </contour>
  </outline>
</glyph>
<glyph name="AE" format="1">
  <advance width="2030"/>
  <unicode hex="00C6"/>
  <outline>
    <contour>
      <point x="-40" y="0" type="line"/>
      <point x="152" y="0" type="line"/>
      <point x="387" y="387" type="line"/>
      <point x="974" y="387" type="line"/>
      <point x="974" y="0" type="line"/>
      <point x="2015" y="0" type="line"/>
      <point x="2015" y="134" type="line"/>
      <point x="1148" y="134" type="line"/>
      <point x="1148" y="712" type="line"/>
      <point x="1842" y="712" type="line"/>
      <point x="1843" y="850" type="line"/>
      <point x="1148" y="850" type="line"/>
      <point x="1148" y="1330" type="line"/>
      <point x="2005" y="1330" type="line"/>
      <point x="2005" y="1464" type="line"/>
      <point x="849" y="1464" type="line"/>
    </contour>
    <contour>
      <point x="459" y="518" type="line"/>
      <point x="974" y="1395" type="line"/>
      <point x="974" y="518" type="line"/>
    </contour>
  </outline>
</glyph>
<glyph name="ae" format="1">
  <advance width="1667"/>
  <unicode hex="00E6"/>
  <outline>
    <contour>
      <point x="79.3641" y="273.257" type="curve" smooth="yes"/>
      <point x="79.3641" y="62.0833"/>
      <point x="237.355" y="-24"/>
      <point x="429" y="-24" type="curve" smooth="yes"/>
      <point x="617" y="-24"/>
      <point x="757" y="37"/>
      <point x="829" y="203" type="curve"/>
      <point x="888" y="40"/>
      <point x="1044" y="-24"/>
      <point x="1195" y="-24" type="curve" smooth="yes"/>
      <point x="1375" y="-23"/>
      <point x="1515" y="83"/>
      <point x="1570" y="234" type="curve"/>
      <point x="1453" y="283" type="line"/>
      <point x="1426" y="218"/>
      <point x="1358" y="100"/>
      <point x="1195" y="100" type="curve" smooth="yes"/>
      <point x="995" y="101"/>
      <point x="920" y="249"/>
      <point x="913" y="487" type="curve"/>
      <point x="1588" y="499" type="line"/>
      <point x="1590" y="516"/>
      <point x="1591" y="563"/>
      <point x="1591" y="572" type="curve" smooth="yes"/>
      <point x="1591" y="844"/>
      <point x="1477" y="1045"/>
      <point x="1192" y="1045" type="curve" smooth="yes"/>
      <point x="1049" y="1045"/>
      <point x="914" y="978"/>
      <point x="848" y="831" type="curve"/>
      <point x="801" y="991"/>
      <point x="671" y="1045"/>
      <point x="518" y="1045" type="curve" smooth="yes"/>
      <point x="366" y="1045"/>
      <point x="245" y="1008"/>
      <point x="131" y="929" type="curve"/>
      <point x="197" y="824" type="line"/>
      <point x="277.12" y="875.572"/>
      <point x="369.961" y="922.054"/>
      <point x="497.393" y="922.054" type="curve" smooth="yes"/>
      <point x="702.646" y="922.054"/>
      <point x="740.817" y="832.762"/>
      <point x="744" y="594" type="curve"/>
      <point x="578" y="592" type="line"/>
      <point x="264.584" y="586.196"/>
      <point x="79.3641" y="507.405"/>
    </contour>
    <contour>
      <point x="454.861" y="99.8579" type="curve" smooth="yes"/>
      <point x="324.135" y="99.8579"/>
      <point x="250.126" y="153.51"/>
      <point x="250.126" y="275.787" type="curve" smooth="yes"/>
      <point x="250.126" y="425.051"/>
      <point x="380.841" y="467.225"/>
      <point x="590" y="472" type="curve" smooth="yes"/>
      <point x="744" y="475" type="line"/>
      <point x="744" y="396" type="line" smooth="yes"/>
      <point x="744" y="181.197"/>
      <point x="630.556" y="99.8579"/>
    </contour>
    <contour>
      <point x="915" y="600" type="line"/>
      <point x="925" y="786"/>
      <point x="1021" y="922"/>
      <point x="1192" y="922" type="curve" smooth="yes"/>
      <point x="1363" y="922"/>
      <point x="1430" y="814"/>
      <point x="1441" y="610" type="curve"/>
    </contour>
  </outline>
</glyph>
<glyph name="dcroat" format="1">
  <advance width="1137"/>
  <unicode hex="0111"/>
  <outline>
    <component base="d"/>
    <contour>
      <point x="580" y="1191" type="line"/>
      <point x="1112" y="1191" type="line"/>
      <point x="1112" y="1294" type="line"/>
      <point x="580" y="1294" type="line"/>
    </contour>
  </outline>
</glyph>
<glyph name="hbar" format="1">
  <advance width="1117"/>
  <unicode hex="0127"/>
  <outline>
    <component base="h"/>
    <contour>
      <point x="-5" y="1191" type="line"/>
      <point x="527" y="1191" type="line"/>
      <point x="527" y="1294" type="line"/>
      <point x="-5" y="1294" type="line"/>
    </contour>
  </outline>
</glyph>
<glyph name="kgreenlandic" format="1">
  <advance width="1010"/>
  <unicode hex="0138"/>
  <outline>
    <contour>
      <point x="845" y="0" type="line"/>
      <point x="1037" y="0" type="line"/>
      <point x="607" y="597" type="line"/>
      <point x="980" y="1023" type="line"/>
      <point x="785" y="1023" type="line"/>
      <point x="285.545" y="465.849" type="line"/>
      <point x="285" y="1023" type="line"/>
      <point x="116" y="1023" type="line"/>
      <point x="116" y="0" type="line"/>
      <point x="286" y="0" type="line"/>
      <point x="285.716" y="290.528" type="line"/>
      <point x="492" y="504" type="line"/>
    </contour>
  </outline>
</glyph>
<glyph name="Lslash" format="1">
  <advance width="1055"/>
  <unicode hex="0141"/>
  <outline>
    <component base="L"/>
    <contour>
      <point x="-25" y="618" type="line"/>
      <point x="610" y="878" type="line"/>
      <point x="610" y="1024" type="line"/>
      <point x="-25" y="764" type="line"/>
    </contour>
  </outline>
</glyph>
<glyph name="tbar" format="1">
  <advance width="671"/>
  <unicode hex="0167"/>
  <outline>
    <component base="t"/>
    <contour>
      <point x="79" y="534" type="line"/>
      <point x="533" y="534" type="line"/>
      <point x="533" y="654" type="line"/>
      <point x="79" y="654" type="line"/>
    </contour>
  </outline>
</glyph>
<glyph name="uni0237" format="1">
  <advance width="494"/>
  <unicode hex="0237"/>
  <outline>
    <contour>
      <point x="138" y="-347" type="curve" smooth="yes"/>
      <point x="322" y="-347"/>
      <point x="376" y="-252"/>
      <point x="376" y="-24" type="curve" smooth="yes"/>
      <point x="376" y="1023" type="line"/>
      <point x="206" y="1023" type="line"/>
      <point x="206" y="-91" type="line" smooth="yes"/>
      <point x="206" y="-180"/>
      <point x="168" y="-207"/>
      <point x="111" y="-207" type="curve" smooth="yes"/>
      <point x="65" y="-207"/>
      <point x="26" y="-191"/>
      <point x="-7" y="-177" type="curve"/>
      <point x="-41" y="-304" type="line"/>
      <point x="3" y="-328"/>
      <point x="67" y="-347"/>
    </contour>
  </outline>
</glyph>
<glyph name="uni02C9" format="1">
  <advance width="600"/>
  <unicode hex="02C9"/>
  <outline>
    <contour>
      <point x="107" y="1253" type="line"/>
      <point x="561" y="1253" type="line"/>
      <point x="561" y="1373" type="line"/>
      <point x="107" y="1373" type="line"/>
    </contour>
  </outline>
</glyph>
<glyph name="ogonek" format="1">
  <advance width="462"/>
  <unicode hex="02DB"/>
  <outline>
    <contour>
      <point x="290" y="0" type="move" name="_ogonek"/>
    </contour>
    <contour>
      <point x="366" y="-368" type="curve"/>
      <point x="366" y="-272" type="line"/>
      <point x="349.094" y="-275.87"/>
      <point x="334.594" y="-277.666"/>
      <point x="322.221" y="-277.666" type="curve" smooth="yes"/>
      <point x="273.853" y="-277.666"/>
      <point x="258" y="-250.223"/>
      <point x="258" y="-212" type="curve" smooth="yes"/>
      <point x="258" y="-154"/>
      <point x="297" y="-77"/>
      <point x="331" y="0" type="curve"/>
      <point x="248" y="0" type="line"/>
      <point x="183.657" y="-80.4289"/>
      <point x="116.962" y="-161.649"/>
      <point x="116.962" y="-244.076" type="curve" smooth="yes"/>
      <point x="116.962" y="-308.932"/>
      <point x="168.105" y="-379.127"/>
      <point x="281.484" y="-379.127" type="curve" smooth="yes"/>
      <point x="306.569" y="-379.127"/>
      <point x="334.701" y="-375.691"/>
    </contour>
  </outline>
</glyph>
<glyph name="partialdiff" format="1">
  <advance width="1162"/>
  <unicode hex="2202"/>
  <outline>
    <contour>
      <point x="601" y="908" type="curve" smooth="yes"/>
      <point x="369.86" y="908"/>
      <point x="127" y="721.047"/>
      <point x="127" y="389" type="curve" smooth="yes"/>
      <point x="127" y="168"/>
      <point x="252" y="-24"/>
      <point x="518" y="-24" type="curve" smooth="yes"/>
      <point x="888.129" y="-24"/>
      <point x="1037" y="289.529"/>
      <point x="1037" y="683" type="curve" smooth="yes"/>
      <point x="1037" y="1063"/>
      <point x="875" y="1432"/>
      <point x="320" y="1432" type="curve"/>
      <point x="308" y="1320" type="line"/>
      <point x="739" y="1320"/>
      <point x="873" y="1007"/>
      <point x="878" y="773" type="curve"/>
      <point x="814" y="865"/>
      <point x="712" y="908"/>
    </contour>
    <contour>
      <point x="870" y="607" type="curve" smooth="yes"/>
      <point x="870" y="337.399"/>
      <point x="763.945" y="106"/>
      <point x="540" y="106" type="curve" smooth="yes"/>
      <point x="399" y="106"/>
      <point x="296" y="208"/>
      <point x="296" y="388" type="curve" smooth="yes"/>
      <point x="296" y="625.515"/>
      <point x="441.595" y="776"/>
      <point x="605" y="776" type="curve" smooth="yes"/>
      <point x="707" y="776"/>
      <point x="787" y="728"/>
      <point x="869" y="628" type="curve"/>
      <point x="870" y="622"/>
      <point x="870" y="615"/>
    </contour>
  </outline>
</glyph>
<glyph name="product" format="1">
  <advance width="1392"/>
  <unicode hex="220F"/>
  <outline>
    <contour>
      <point x="146" y="0" type="line"/>
      <point x="321" y="0" type="line"/>
      <point x="321" y="1331" type="line"/>
      <point x="1071" y="1331" type="line"/>
      <point x="1071" y="0" type="line"/>
      <point x="1247" y="0" type="line"/>
      <point x="1247" y="1464" type="line"/>
      <point x="146" y="1464" type="line"/>
    </contour>
  </outline>
</glyph>
<glyph name="infinity" format="1">
  <advance width="1617"/>
  <unicode hex="221E"/>
  <outline>
    <contour>
      <point x="1570" y="737" type="curve" smooth="yes"/>
      <point x="1570" y="948.217"/>
      <point x="1439.24" y="1161.01"/>
      <point x="1178.35" y="1161.01" type="curve" smooth="yes"/>
      <point x="1022.5" y="1161.01"/>
      <point x="889.578" y="1073.12"/>
      <point x="815" y="918" type="curve"/>
      <point x="733" y="1075"/>
      <point x="596" y="1165"/>
      <point x="440" y="1165" type="curve" smooth="yes"/>
      <point x="180" y="1165"/>
      <point x="50" y="946"/>
      <point x="50" y="729" type="curve" smooth="yes"/>
      <point x="50" y="513"/>
      <point x="177" y="299"/>
      <point x="432" y="299" type="curve" smooth="yes"/>
      <point x="583" y="299"/>
      <point x="721" y="391"/>
      <point x="811" y="553" type="curve"/>
      <point x="890" y="399"/>
      <point x="1025" y="310"/>
      <point x="1176" y="310" type="curve" smooth="yes"/>
      <point x="1439" y="310"/>
      <point x="1570" y="524"/>
    </contour>
    <contour>
      <point x="442" y="468" type="curve" smooth="yes"/>
      <point x="274" y="468"/>
      <point x="190" y="602"/>
      <point x="190" y="736" type="curve" smooth="yes"/>
      <point x="190" y="869"/>
      <point x="272" y="1000"/>
      <point x="441" y="1000" type="curve" smooth="yes"/>
      <point x="576" y="1000"/>
      <point x="692" y="880"/>
      <point x="761" y="669" type="curve"/>
      <point x="680" y="541"/>
      <point x="564" y="468"/>
    </contour>
    <contour>
      <point x="1177" y="474" type="curve" smooth="yes"/>
      <point x="1051" y="474"/>
      <point x="937" y="594"/>
      <point x="865" y="804" type="curve"/>
      <point x="937" y="925"/>
      <point x="1046" y="992"/>
      <point x="1166" y="992" type="curve" smooth="yes"/>
      <point x="1317" y="992"/>
      <point x="1427" y="883"/>
      <point x="1427" y="730" type="curve" smooth="yes"/>
      <point x="1427" y="601"/>
      <point x="1344" y="474"/>
    </contour>
  </outline>
</glyph>
